# xmcd CD database file
#
# Track frame offsets:
#	150
#	16144
#	32278
#	49903
#	59492
#	71720
#	84483
#	102463
#	112866
#	127272
#	145550
#	159493
#	175048
#	184277
#	204994
#	221033
#	235970
#	249424
#	267938
#	278375
#
# Disc length: 3854 seconds
#
# Revision: 0
# Processed by: cddbd v1.5.2PL0 Copyright (c) Steve Scherf et al.
# Submitted via: CDex 1.79
#
DISCID=170f0c14
DTITLE=Various Artist - The very best of country vol 10
DYEAR=1900
DGENRE=Country
TTITLE0=The end of the line
TTITLE1=Cinderalla
TTITLE2=Ready and waiting
TTITLE3=Just a good ol' boy
TTITLE4=Wasted days and wasted nights
TTITLE5=Lifestyle of the not so rich and famous
TTITLE6=What she is, is a woman in love earl
TTITLE7=Ain't had no lovin
TTITLE8=Hank Williams you wrote my life
TTITLE9=Lay back in the arms of someone
TTITLE10=What a woman wants
TTITLE11=Amen kind of love
TTITLE12=Shame about that
TTITLE13=Don't leave me this way
TTITLE14=Somebody's gonna get that girl
TTITLE15=Nobody
TTITLE16=Better love next time
TTITLE17=Heart of stone
TTITLE18=Sleeping single in a double bed
TTITLE19=Tender years
EXTD=
EXTT0=
EXTT1=
EXTT2=
EXTT3=
EXTT4=
EXTT5=
EXTT6=
EXTT7=
EXTT8=
EXTT9=
EXTT10=
EXTT11=
EXTT12=
EXTT13=
EXTT14=
EXTT15=
EXTT16=
EXTT17=
EXTT18=
EXTT19=
PLAYORDER=
